<svg xmlns="http://www.w3.org/2000/svg" width="900" height="520" viewBox="0 0 900 520"><style>.box{fill:#f8fafc;stroke:#cbd5e1;stroke-width:1.2;rx:10}.title{font:600 16px &apos;Arial&apos;,sans-serif;fill:#0f172a}.text{font:14px &apos;Arial&apos;,sans-serif;fill:#334155}.arrow{stroke:#64748b;stroke-width:1.4;fill:none}</style><rect width="280" height="70" x="60" y="40" class="box" rx="10"/><text x="90" y="70" class="title">Recevoir l&apos;état</text><text x="90" y="92" class="text">Socket TCP / message serveur</text><rect width="280" height="70" x="60" y="140" class="box" rx="10"/><text x="90" y="170" class="title">Parser &amp; construire</text><text x="90" y="192" class="text">Labyrinthe, joueurs, bonus</text><rect width="280" height="70" x="60" y="240" class="box" rx="10"/><text x="90" y="270" class="title">Calcul distances</text><text x="90" y="292" class="text">BFS + bonus-aware</text><rect width="280" height="70" x="60" y="340" class="box" rx="10"/><text x="90" y="370" class="title">Évaluer actions</text><text x="90" y="392" class="text">Score + pénalités + futur</text><rect width="280" height="70" x="60" y="440" class="box" rx="10"/><text x="90" y="470" class="title">Choisir &amp; envoyer</text><text x="90" y="492" class="text">Action optimale</text><rect width="380" height="70" x="460" y="140" class="box" rx="10"/><text x="490" y="170" class="title">Choix de cible</text><text x="490" y="192" class="text">moules / bonus, mode plan</text><rect width="380" height="70" x="460" y="260" class="box" rx="10"/><text x="490" y="290" class="title">Mémoire &amp; anti-boucle</text><text x="490" y="312" class="text">retours, stagnation, verrouillage</text><line x1="200" x2="200" y1="110" y2="140" class="arrow"/><line x1="200" x2="200" y1="210" y2="240" class="arrow"/><line x1="200" x2="200" y1="310" y2="340" class="arrow"/><line x1="200" x2="200" y1="410" y2="440" class="arrow"/><line x1="340" x2="460" y1="175" y2="175" class="arrow"/><line x1="340" x2="460" y1="275" y2="275" class="arrow"/><polygon fill="#64748b" points="200 138 194 128 206 128"/><polygon fill="#64748b" points="200 238 194 228 206 228"/><polygon fill="#64748b" points="200 338 194 328 206 328"/><polygon fill="#64748b" points="200 438 194 428 206 428"/><polygon fill="#64748b" points="458 175 448 169 448 181"/><polygon fill="#64748b" points="458 275 448 269 448 281"/></svg>